<svg xmlns="http://www.w3.org/2000/svg" width="539.758" height="612" viewBox="0 0 539.758 612"><g transform="translate(-2703 -1177)"><path d="M269.272,310.2c86.177-.005,117.184-86.291,125.3-157.169C404.572,65.715,363.282,0,269.272,0S133.963,65.71,143.97,153.029C152.1,223.907,183.093,310.2,269.272,310.2Z" transform="translate(2666.879 1177)" fill="#fff"/><path d="M457.707,346.115q4.16,0,8.264.235a65.87,65.87,0,0,0-14.4-15.158c-16.559-12.359-38.005-16.414-56.964-23.864A246.526,246.526,0,0,1,369.353,296c-26.184,28.715-60.329,43.736-100.091,43.74S195.371,324.721,169.19,296a246.5,246.5,0,0,1-25.251,11.326c-18.959,7.451-40.4,11.505-56.964,23.864-28.638,21.375-36.039,69.46-41.854,102.26a588.024,588.024,0,0,0-8.964,82.209c-.729,21.3,9.789,24.29,27.611,30.721,22.315,8.048,45.356,14.023,68.552,18.921,44.8,9.46,90.973,16.729,136.95,17.054a550.648,550.648,0,0,0,66.792-4.833,146.871,146.871,0,0,1-26.068-83.7C309.995,412.378,376.258,346.115,457.707,346.115Z" transform="translate(2666.879 1177)" fill="#fff"/><path d="M457.707,375.658A118.171,118.171,0,1,0,575.879,493.829,118.174,118.174,0,0,0,457.707,375.658Zm51.7,138.445H477.982v31.424a20.275,20.275,0,1,1-40.55,0V514.1H406.008a20.276,20.276,0,0,1,0-40.552h31.424V442.127a20.275,20.275,0,1,1,40.55,0v31.424h31.425a20.276,20.276,0,0,1,0,40.552Z" transform="translate(2666.879 1177)" fill="#fff"/></g></svg>