<svg xmlns="http://www.w3.org/2000/svg" width="219.2" height="219.2" viewBox="0 0 219.2 219.2"><g transform="translate(-78 -131)"><g transform="translate(-326.7 -36.2)"><circle cx="109.6" cy="109.6" r="109.6" transform="translate(404.7 167.2)" fill="#f4f4f4"/><path d="M513.4,386.3A108.95,108.95,0,0,0,599,345V309H430v38.7A108.973,108.973,0,0,0,513.4,386.3Z" fill="#e3e3e3"/><path d="M457,287v22H430Z" fill="#a6a6a6"/><path d="M572,287v22h27Z" fill="#a6a6a6"/><rect width="115" height="22" transform="translate(457 287)" fill="#cecece"/><circle cx="2.7" cy="2.7" r="2.7" transform="translate(500.2 322.5)" fill="none" stroke="#565656" stroke-miterlimit="10" stroke-width="2"/><circle cx="2.7" cy="2.7" r="2.7" transform="translate(523.2 322.5)" fill="none" stroke="#565656" stroke-miterlimit="10" stroke-width="2"/><path d="M503.2,326.2h-.6a1.109,1.109,0,0,1-1.1-1.3l1-14c1.4-7.5,5.7-11.7,12-11.7,6.6,0,11.1,6.1,12,11.8v.1l.9,13.8a1.3,1.3,0,0,1-1.1,1.3h-.6a1.3,1.3,0,0,1-1.3-1.1l-.9-13.7c-.7-4.5-4.1-9.2-9-9.2-6.3,0-8.4,5.7-9,9.2l-1,13.7A1.384,1.384,0,0,1,503.2,326.2Z" fill="#fff"/><line y1="20" transform="translate(513.5 251)" fill="none" stroke="#a6a6a6" stroke-miterlimit="10" stroke-width="3"/><line x1="6.5" y1="9.6" transform="translate(493.5 259.2)" fill="none" stroke="#a6a6a6" stroke-miterlimit="10" stroke-width="2"/><line y1="5.6" x2="4" transform="translate(532.5 265.4)" fill="none" stroke="#a6a6a6" stroke-miterlimit="10" stroke-width="2"/><rect width="9.2" height="2.3" transform="translate(549.6 234.9)" fill="#a6a6a6"/><rect width="2.3" height="9.2" transform="translate(553 231.4)" fill="#a6a6a6"/><rect width="7" height="1.8" transform="translate(463 243.4)" fill="#a6a6a6"/><rect width="1.8" height="7" transform="translate(465.6 240.8)" fill="#a6a6a6"/><circle cx="4.4" cy="4.4" r="4.4" transform="translate(500.1 216.1)" fill="none" stroke="#a6a6a6" stroke-miterlimit="10" stroke-width="3"/><circle cx="3" cy="3" r="3" transform="translate(530.5 241.5)" fill="none" stroke="#a6a6a6" stroke-miterlimit="10" stroke-width="2"/><circle cx="1.3" cy="1.3" r="1.3" transform="translate(557.2 268.2)" fill="none" stroke="#a6a6a6" stroke-miterlimit="10" stroke-width="2"/><circle cx="1.3" cy="1.3" r="1.3" transform="translate(465.2 269.2)" fill="none" stroke="#a6a6a6" stroke-miterlimit="10" stroke-width="2"/></g></g></svg>