<svg xmlns="http://www.w3.org/2000/svg" width="163.25" height="214.633" viewBox="0 0 163.25 214.633"><g transform="translate(-41.895)"><path d="M147.747,104.97c23.863,0,43.21-23.5,43.21-52.484S184.605,0,147.747,0s-43.212,23.5-43.212,52.485S123.882,104.97,147.747,104.97Z" transform="translate(-24.227 0)" fill="#ccc"/><path d="M41.9,301.28c-.007-1.767-.015-.5,0,0Z" transform="translate(0 -116.173)" fill="#ccc"/><path d="M308.085,303.091c.023-.484.008-3.357,0,0Z" transform="translate(-102.953 -116.604)" fill="#ccc"/><path d="M205.045,251.731c-.8-50.5-7.4-64.883-57.86-73.991,0,0-7.1,9.052-23.661,9.052s-23.662-9.052-23.662-9.052c-49.914,9.008-56.91,23.183-57.83,72.351-.075,4.015-.11,4.226-.124,3.76,0,.873.007,2.489.007,5.305,0,0,12.015,24.22,81.61,24.22s81.61-24.22,81.61-24.22c0-1.81,0-3.068,0-3.924A32.51,32.51,0,0,1,205.045,251.731Z" transform="translate(-0.005 -68.743)" fill="#ccc"/></g></svg>